<?xml version="1.0" encoding="UTF-8"?><svg id="a" xmlns="http://www.w3.org/2000/svg" viewBox="0 0 104.41 91.89"><defs><style>.b{fill:#474747;}</style></defs><circle class="b" cx="39.08" cy="36.56" r="6.37"/><circle class="b" cx="65.43" cy="36.56" r="6.37"/><path class="b" d="M95.95,34.03h-3.4C89.26,14.71,72.35,0,52.15,0S15.15,14.71,11.75,34.03h-3.29c-4.61,0-8.45,3.84-8.45,8.45v14.16c0,2.31,.88,4.39,2.53,6.04,1.65,1.54,3.73,2.42,5.93,2.42h7.58c2.2,0,3.95-1.76,3.95-3.95v-20.2c0-17.68,14.38-32.06,32.06-32.06s32.06,14.38,32.06,32.06v27.56c0,7.25-5.93,13.17-13.17,13.17h-7.25c-.55-2.31-2.53-3.95-5.05-3.95h-13.06c-2.96,0-5.27,2.42-5.27,5.27v3.62c0,2.96,2.42,5.27,5.27,5.27h13.28c2.42,0,4.39-1.76,5.05-3.95h7.25c10.65,0,19.43-8.67,19.43-19.43v-3.51h5.38c2.2,0,4.39-.88,5.93-2.42,1.65-1.65,2.53-3.73,2.53-6.04v-14.05c0-4.61-3.73-8.34-8.45-8.45Z"/><path class="b" d="M67.3,58.74c1.1-1.65,.55-3.84-1.1-4.94-1.65-1.1-3.84-.55-4.94,1.1-1.76,2.74-5.27,4.39-9.11,4.39s-7.36-1.65-9.11-4.39c-1.1-1.65-3.29-2.09-4.94-1.1-1.65,1.1-2.09,3.29-1.1,4.94,3.07,4.72,8.78,7.58,15.15,7.58,6.37,.11,12.19-2.85,15.15-7.58Z"/></svg>