<?xml version="1.0" encoding="UTF-8"?><svg id="a" xmlns="http://www.w3.org/2000/svg" xmlns:xlink="http://www.w3.org/1999/xlink" viewBox="0 0 220.93 38.34"><defs><style>.f{fill:url(#c);}.g{fill:url(#b);}.h{fill:url(#d);}.i{fill:url(#e);}.j{fill:#010f33;}</style><linearGradient id="b" x1="17.29" y1="19.17" x2="65.49" y2="19.17" gradientTransform="matrix(1, 0, 0, 1, 0, 0)" gradientUnits="userSpaceOnUse"><stop offset="0" stop-color="#6716cb"/><stop offset="1" stop-color="#217cff"/></linearGradient><linearGradient id="c" x1="27.17" y1="17.21" x2="27.25" y2="17.21" gradientTransform="matrix(1, 0, 0, 1, 0, 0)" gradientUnits="userSpaceOnUse"><stop offset="0" stop-color="#039dff"/><stop offset="1" stop-color="#6be0cd"/></linearGradient><linearGradient id="d" x1="38.24" y1="21.12" x2="38.3" y2="21.12" xlink:href="#c"/><linearGradient id="e" x1="0" y1="19.17" x2="48.18" y2="19.17" xlink:href="#c"/></defs><g><path class="j" d="M96.14,9.65c-.1,.1-.24,.18-.44,.25-.44,.19-.92,.27-1.45,.22-.53-.05-1.03-.02-1.49,.07,.05,.34,.08,.65,.09,.94,.01,.29,.02,.53,.02,.73v15.47s.11-.02,.33,0c.22,.02,.46,.05,.73,.09,.27,.04,.52,.08,.76,.13,.24,.05,.39,.07,.44,.07,.58,.1,1.02,.25,1.31,.45,.29,.21,.4,.67,.33,1.4-.05,.6-.17,1.05-.36,1.33-.19,.28-.45,.47-.76,.58-.31,.11-.67,.16-1.07,.15-.4-.01-.83-.02-1.29-.02-.61,.02-1.21,.03-1.82,.02-.61-.01-1.2-.02-1.78-.02h-2.74c-.91,0-1.82,.01-2.74,.04h-1.87c-.62,0-1.24-.01-1.87-.04-.29,0-.64-.02-1.03-.07-.4-.05-.79-.15-1.16-.29-.38-.14-.7-.34-.96-.6-.27-.25-.42-.59-.47-1-.07-.56,.04-.97,.33-1.25,.29-.28,.65-.48,1.09-.6,.44-.12,.9-.19,1.4-.2,.5-.01,.91-.04,1.25-.09-.02-.46-.03-.91-.02-1.34,.01-.44,.02-.87,.02-1.31V12.38c0-.07-.02-.31-.05-.73-.04-.41-.04-.9-.02-1.45-.36-.02-.73-.04-1.09-.04s-.72-.04-1.07-.11c-.35-.07-.67-.2-.96-.38-.29-.18-.52-.47-.69-.85-.29-.56-.3-1.09-.04-1.6,.27-.51,.67-.86,1.2-1.05,.56-.19,1.16-.31,1.82-.36,.65-.05,1.27-.07,1.85-.07,1.94,0,3.85,0,5.75,.02,1.9,.01,3.82,.02,5.75,.02,.48,0,1.01,.05,1.58,.16,.57,.11,1.02,.36,1.36,.74,.34,.39,.5,.9,.49,1.52-.01,.63-.22,1.11-.64,1.45Zm-11,3.09c.02,.19,.04,.35,.04,.47v.36l-.07,12.71c0,.07,.02,.22,.05,.44,.04,.22,.1,.42,.2,.62h3.23V13.46c0-.48,0-.88-.02-1.2-.01-.31-.02-.63-.04-.94-.01-.31-.03-.56-.05-.73,0-.15-.04-.28-.11-.4h-2.98c-.1,.1-.16,.23-.18,.4-.05,.19-.08,.51-.09,.96-.01,.45,0,.84,.02,1.18Zm19.1,2.83c.12,0,.24,.01,.34,.04,.11,.02,.22,.04,.34,.04,.12,.02,.25,.04,.4,.05,.15,.01,.29,.03,.44,.05,.27,.05,.53,.14,.8,.27,.27,.13,.46,.33,.58,.6,.17,.27,.25,.58,.25,.94,0,.19,0,.37-.02,.53-.01,.16-.04,.33-.09,.53-.05,.19-.1,.4-.16,.62-.06,.22-.18,.39-.34,.51-.34,.24-.67,.4-.98,.47-.39,.05-.86,.06-1.42,.04-.56-.02-1.03-.02-1.42,0-.02,0-.05,.01-.07,.04h-.04l-.04,.04v4.65c.05,1.26,.05,2.49,0,3.7v.51c0,.31,0,.66-.02,1.03-.01,.38-.04,.74-.09,1.11-.05,.36-.13,.71-.25,1.03-.12,.33-.29,.6-.51,.82-.29,.34-.68,.51-1.16,.51l-.07-.04c-.58-.02-1.05-.19-1.4-.51-.35-.31-.62-.7-.8-1.16-.18-.46-.3-.94-.34-1.43-.05-.5-.07-.94-.07-1.32V7.31c0-.21,.02-.45,.07-.73,.05-.28,.13-.57,.24-.87,.11-.3,.26-.55,.45-.74,.17-.17,.42-.3,.74-.38,.33-.08,.62-.13,.89-.13,.53,0,.98,.18,1.34,.54,.34,.34,.54,.7,.6,1.07,.06,.38,.11,.77,.16,1.18,.02,.1,.04,.24,.04,.44,.05,.41,.08,.83,.09,1.27,.01,.44,.03,.87,.05,1.31,0,.27,0,.53,.02,.78,.01,.25,.02,.51,.02,.78-.02,.15-.03,.28-.02,.42,.01,.13,.02,.26,.02,.38v2.47c0,.15,.02,.28,.07,.4,0,.02,.12,.04,.36,.04h.4c.22,.05,.39,.06,.51,.04h.07Z"/><path class="j" d="M111.13,31.44c-.39-.02-.77-.08-1.14-.16-.38-.08-.71-.21-1-.36-.29-.16-.53-.38-.71-.67-.18-.29-.27-.68-.27-1.16s.16-.91,.47-1.27c.19-.19,.44-.34,.73-.44,.29-.1,.57-.17,.83-.22,.27-.05,.5-.07,.71-.07h.34l20.22,.04c.63,0,1.2,0,1.72,.02,.52,.01,.99,.19,1.4,.53,.51,.46,.76,.98,.76,1.56,0,.36-.11,.7-.33,1-.22,.3-.51,.51-.87,.64-.48,.19-.99,.33-1.51,.4-.52,.07-1.03,.12-1.54,.14-1.77,.07-3.51,.1-5.23,.07-1.72-.02-3.39-.04-5.01-.04-.87,0-1.76,0-2.67,.02-.91,.01-1.78,.02-2.61,.02h-2.38c-.75,0-1.39-.01-1.92-.04Zm21.35-11.94c.31,.22,.54,.49,.67,.82,.13,.33,.19,.66,.16,1-.02,.34-.13,.66-.31,.96-.18,.3-.44,.54-.78,.71-.53,.29-1.09,.48-1.67,.58-.58,.1-1.15,.14-1.71,.14h-13.29c-.39,0-.81-.01-1.27-.04-.46-.02-.91-.08-1.34-.18-.44-.1-.85-.24-1.23-.42-.39-.18-.71-.43-.98-.74-.24-.29-.42-.65-.54-1.07-.12-.42-.2-.85-.24-1.27-.04-.42-.05-.79-.05-1.09V8.38c0-.19,.01-.41,.04-.64,.02-.23,.06-.46,.11-.69,.05-.23,.11-.42,.18-.56,.22-.34,.44-.59,.65-.76,.22-.17,.51-.28,.87-.33,.1-.02,.21-.04,.34-.04s.27-.01,.42-.04c.14,0,.31-.01,.51-.04h15.68c.12,0,.25,0,.38,.02,.13,.01,.26,0,.38-.02h.07c.22,0,.44,.01,.67,.04,.23,.02,.45,.07,.67,.14,.22,.05,.44,.11,.65,.18,.22,.07,.41,.21,.58,.4,.12,.17,.23,.36,.33,.56,.1,.21,.17,.42,.22,.64,.07,.31,.08,.68,.04,1.09-.07,.51-.34,.95-.8,1.33-.46,.38-.96,.56-1.49,.56h-15.54v2.18c.19,0,.48,0,.87,.02,.39,.01,.83,.02,1.33,.02h3.32c1.33,0,2.78-.01,4.36-.04h3.52c.12,0,.24,0,.36,.02,.12,.01,.24,0,.36-.02h.98c.27,0,.54,.02,.82,.07,.28,.05,.54,.15,.78,.29,.36,.22,.59,.54,.69,.96,.1,.42,.12,.83,.07,1.22,0,.48-.2,.88-.6,1.18-.4,.3-.88,.45-1.43,.45h-4.36c-1.48,.02-2.84,.04-4.1,.04h-5.99c-.31,0-.64-.01-.98-.04,.02,.48,.04,.77,.04,.87s0,.12,0,.05-.01-.22-.04-.49v1.49c0,.17,0,.28,.02,.33,.01,.05,.03,.07,.05,.05,.02-.01,.05-.03,.07-.05,.02-.02,.05-.04,.07-.04,.17,.1,.44,.17,.82,.22,.37,.05,.8,.07,1.29,.07h.15c.12,0,.43,0,.93-.02,.5-.01,1.07-.02,1.72-.02h4.21c.65,0,1.22,0,1.71,.02,.48,.01,.8,.02,.94,.02h1.89c.19,0,.36,0,.51-.02,.15-.01,.31-.02,.51-.02,.39,0,.77,.01,1.16,.04,.39,.02,.77,.1,1.16,.22,.07,.02,.14,.05,.2,.07,.06,.02,.13,.06,.2,.11Z"/><path class="j" d="M143.12,23.3c0,.34-.01,.67-.04,1-.02,.33-.02,.66,0,1,0,.17,.01,.34,.04,.51,.02,.17,.1,.32,.22,.44,.15,.12,.32,.19,.53,.2,.21,.01,.41,.02,.6,.02,.27,0,.54,0,.84,.02,.29,.01,.57,.02,.83,.02h2.81c.54,0,1.07,.01,1.58,.04,.51,.02,.91,.05,1.2,.07,.41,.05,.84,.12,1.29,.2,.45,.09,.85,.25,1.22,.49,.19,.12,.33,.28,.42,.49,.08,.21,.14,.42,.16,.64,.02,.12,.04,.24,.04,.34v.34c-.05,.58-.24,1.06-.58,1.45-.34,.36-.79,.6-1.34,.73-.34,.05-.67,.1-1,.15-.33,.05-.66,.07-1,.07h-.58c-.27,0-.56,0-.87-.02-.31-.01-.61-.02-.87-.02h-4.61c-.48,0-.95-.02-1.4-.07-.45-.05-.91-.08-1.4-.11-.36-.02-.74-.09-1.13-.2-.39-.11-.71-.3-.98-.56s-.47-.56-.6-.87c-.13-.31-.24-.64-.31-.98-.15-.77-.21-1.57-.18-2.4,.02-.82,.04-1.63,.04-2.43V15.32c0-.41,0-.83,.02-1.27,.01-.44,0-.87-.02-1.31,0-.02,0-.21-.02-.56-.01-.35-.02-.77-.02-1.27v-1.52c0-.52,.01-.99,.04-1.4,.02-.48,.13-.99,.33-1.51,.19-.52,.6-.91,1.23-1.18,.27-.1,.54-.17,.84-.22,.29-.05,.58-.04,.87,.04,.29,.07,.56,.2,.82,.38s.44,.43,.56,.74c.15,.34,.25,.7,.31,1.07,.06,.38,.09,.77,.09,1.18v.8c0,.27,.01,.53,.04,.8v13.22Zm14.3-3.09c-.17-.02-.53-.04-1.07-.05-.54-.01-1.14-.02-1.78-.04-.64-.01-1.23-.02-1.78-.02s-.9-.01-1.07-.04c-.41-.02-.81-.1-1.18-.24-.38-.13-.7-.33-.96-.58-.27-.25-.45-.56-.54-.91-.1-.35-.09-.76,.04-1.22,.05-.19,.15-.4,.31-.62,.16-.22,.31-.39,.45-.51,.29-.22,.63-.36,1.02-.44,.19-.02,.6-.04,1.22-.05,.62-.01,1.28-.02,2-.04,.71-.01,1.39-.02,2.02-.02s1.04-.01,1.23-.04h.11c.05-1.09,.05-2.13,0-3.12-.05-.99-.05-2.03,0-3.12v-.51c0-.31,0-.66,.02-1.03,.01-.38,.04-.75,.09-1.13,.05-.38,.13-.73,.25-1.05,.12-.33,.29-.6,.51-.82,.36-.31,.81-.47,1.34-.47h.07c.58,.02,1.05,.18,1.4,.47,.35,.29,.62,.64,.8,1.05,.18,.41,.3,.85,.34,1.31,.05,.46,.07,.88,.07,1.27V30.55c0,.21-.02,.45-.07,.74-.05,.29-.12,.58-.22,.87-.1,.29-.25,.53-.47,.73-.17,.17-.44,.3-.82,.4-.38,.1-.7,.15-.96,.15-.58,0-1.04-.19-1.38-.58-.31-.34-.51-.69-.58-1.05-.07-.36-.13-.75-.18-1.16,0-.07,0-.15-.02-.22-.01-.07-.02-.16-.02-.25-.05-.39-.07-.8-.07-1.23s-.01-.87-.04-1.31c-.02-.27-.04-.53-.04-.78v-1.62l-.04-5.01Z"/><path class="j" d="M188.42,17.68c.41,0,.85,.01,1.31,.04,.46,.02,.88,.1,1.27,.24,.39,.13,.71,.34,.96,.62,.25,.28,.41,.67,.45,1.18,.02,.27-.03,.51-.16,.73-.13,.22-.32,.44-.56,.65-.19,.17-.43,.3-.71,.38-.28,.08-.57,.15-.87,.18-.3,.04-.61,.05-.91,.05s-.58-.01-.82-.04c-.05,0-.11,0-.18-.02-.07-.01-.3-.02-.69-.02h-19.75c-.19,0-.42-.02-.67-.07-.25-.05-.51-.11-.78-.2-.27-.08-.48-.22-.65-.42-.29-.31-.44-.69-.44-1.13,0-.27,.04-.54,.13-.83,.08-.29,.2-.5,.34-.62,.31-.27,.67-.45,1.07-.56,.4-.11,.96-.16,1.69-.16h19.97Zm-17.9-2.21c-.29,0-.63-.01-1.02-.04-.39-.02-.76-.08-1.11-.18-.35-.1-.67-.24-.94-.44-.28-.19-.47-.46-.56-.8-.07-.27-.13-.47-.16-.62-.04-.15-.07-.28-.11-.4-.04-.12-.06-.25-.07-.4-.01-.15-.02-.36-.02-.65v-3.16s0-.06-.02-.25c-.01-.19,0-.43,.02-.71,.02-.28,.08-.58,.16-.91,.08-.33,.2-.61,.34-.85,.15-.24,.38-.44,.71-.58,.33-.14,.65-.25,.98-.33s.62-.11,.89-.13c.27-.01,.44-.02,.51-.02h17.55c.54,0,1.06,.1,1.54,.29,.41,.17,.69,.45,.84,.83,.14,.39,.21,.8,.18,1.23-.05,.41-.2,.76-.45,1.05-.25,.29-.59,.5-1,.62-.39,.1-1.07,.15-2.03,.15h-.8c-.12,0-.23-.01-.33-.04h-12.85c-.12-.02-.3-.03-.53-.02-.23,.01-.41,.05-.53,.13-.07,.02-.12,.13-.15,.31-.02,.18-.04,.39-.04,.62s0,.44,.02,.64c.01,.19,.03,.33,.05,.4,.1,.17,.3,.26,.62,.27,.31,.01,.6,0,.87-.02h13.32c.6,0,1.16,0,1.65,.02,.5,.01,.95,.12,1.36,.31,.48,.22,.81,.63,.98,1.23,.12,.61,0,1.15-.36,1.63-.39,.48-.81,.74-1.25,.76-.45,.02-.94,.05-1.47,.07-.24,0-.73,0-1.45,.02-.73,.01-1.52,.02-2.38,.04-.86,.01-1.69,.02-2.49,.02h-3.59c-.8,0-1.65,0-2.54-.02-.9-.01-1.74-.02-2.54-.04-.8-.01-1.4-.03-1.82-.05Zm-3.85,13.22c0-1.02,.31-1.86,.94-2.52,.63-.67,1.48-1.19,2.54-1.56,1.06-.37,2.32-.64,3.76-.78,1.44-.15,2.98-.22,4.63-.22s3.19,.05,4.63,.15c1.44,.1,2.7,.32,3.78,.67,1.08,.35,1.93,.87,2.56,1.54,.63,.68,.94,1.59,.94,2.72s-.32,2.04-.94,2.7c-.63,.67-1.48,1.18-2.56,1.54-1.08,.36-2.34,.6-3.78,.71-1.44,.11-2.98,.16-4.63,.16s-3.19-.05-4.63-.16c-1.44-.11-2.69-.34-3.76-.71-1.07-.36-1.91-.88-2.54-1.54-.63-.67-.94-1.57-.94-2.7Zm18.99,0c0-.39-.21-.68-.64-.89-.42-.21-.98-.36-1.67-.45-.69-.1-1.46-.15-2.31-.16-.85-.01-1.68-.02-2.51-.02s-1.65,0-2.47,.02c-.82,.01-1.56,.07-2.21,.16-.65,.1-1.18,.25-1.58,.45-.4,.21-.6,.5-.6,.89,0,.34,.2,.61,.6,.82,.4,.21,.93,.36,1.58,.47,.65,.11,1.39,.18,2.21,.22,.82,.04,1.65,.05,2.47,.05s1.66,0,2.51,.02c.85,.01,1.62-.02,2.31-.11,.69-.08,1.25-.24,1.67-.45,.42-.22,.64-.56,.64-1.02Z"/><path class="j" d="M203.74,27.26c-.02-.29-.04-.58-.04-.87V12.81c0-.39-.02-.79-.07-1.2-.02-.12-.05-.29-.09-.51-.04-.22-.12-.35-.24-.4-.12-.07-.26-.1-.42-.09-.16,.01-.31,0-.45-.02-.17-.02-.33-.02-.49,0-.16,.02-.32,.02-.49,0h-1.71c-.41,.02-.82,.02-1.23,0-.41-.02-.82-.02-1.23,0-.19,.02-.37,.03-.53,.02-.16-.01-.33-.02-.53-.02-.27,0-.54-.01-.84-.04-.29-.02-.56-.12-.8-.29-.34-.24-.57-.54-.69-.91-.12-.36-.18-.74-.18-1.13-.02-.46,.07-.92,.29-1.38,.12-.29,.28-.5,.47-.62,.12-.12,.3-.22,.53-.31,.23-.08,.43-.15,.6-.2,.51-.12,1.04-.19,1.6-.2,.56-.01,1.1-.02,1.63-.02h6.32c.31,.05,.65,.09,1,.13,.35,.04,.67,.12,.96,.24,.19,.07,.38,.17,.56,.29,.18,.12,.33,.27,.45,.44,.22,.34,.34,.68,.38,1.02,.04,.34,.08,.71,.13,1.13,.05,.68,.07,1.35,.07,2.01v13.92s0,.21,.02,.56c.01,.35,.02,.76,.02,1.23v1.49c0,.52-.01,.97-.04,1.36-.02,.24-.06,.5-.11,.76-.05,.27-.13,.52-.24,.76-.11,.24-.26,.46-.45,.65-.19,.19-.45,.35-.76,.47-.41,.17-.82,.25-1.23,.25-.31,0-.63-.07-.94-.2-.31-.13-.53-.33-.65-.6-.39-.77-.58-1.63-.58-2.58v-1.6Zm17.14,3.56c-.05,.29-.09,.57-.11,.85-.02,.28-.09,.56-.18,.85-.05,.1-.08,.18-.11,.25-.02,.07-.06,.16-.11,.25-.17,.34-.39,.6-.65,.8-.56,.34-1.17,.42-1.85,.25-.39-.07-.7-.22-.94-.44-.22-.19-.38-.44-.49-.74-.11-.3-.19-.6-.25-.89-.06-.29-.09-.54-.09-.76V7.51c0-.34,.02-.68,.07-1.02,.05-.34,.12-.65,.22-.94,.1-.29,.23-.52,.4-.69,.27-.27,.54-.43,.84-.49,.29-.06,.6-.09,.94-.09,.41,0,.79,.12,1.14,.34,.35,.23,.6,.55,.74,.96,.22,.51,.34,1.04,.36,1.6,.02,.56,.05,1.11,.07,1.67v.18c.05,1.86,.06,3.78,.04,5.74-.02,1.96-.04,3.81-.04,5.55v9.19c0,.22,0,.44,.02,.65,.01,.22,0,.44-.02,.65Z"/></g><g><path class="g" d="M65.05,15.06C63.16,6.45,55.5,0,46.32,0c-4.53,0-8.69,1.58-11.97,4.2l8.92,3.16s.1,.03,.15,.05c2.78,1.04,4.76,3.72,4.77,6.86,0,4.04-3.28,7.32-7.32,7.32-.85,0-1.66-.14-2.41-.41-.05-.02-.1-.03-.15-.05l-.06-.02-10.99-3.89h0s-.05-.02-.07-.03l-.15-.05c-.76-.26-1.57-.41-2.41-.41-4.04,0-7.32,3.28-7.32,7.32,0,3.14,1.98,5.82,4.76,6.86l.15,.05,8.94,3.16,8.54,3.02,.16,.06c2.02,.73,4.2,1.12,6.47,1.12,6.72,0,12.63-3.46,16.05-8.69h0c1.97-3.01,3.12-6.61,3.12-10.48,0-1.41-.16-2.79-.45-4.11Z"/><g><path class="f" d="M27.25,17.23l-.07-.03s.05,.02,.07,.03h0Z"/><path class="h" d="M38.24,21.12l.06,.02s-.04-.02-.06-.02h0Z"/><path class="i" d="M43.42,7.41l-.15-.05-8.92-3.16L25.81,1.18h0l-.16-.06c-2.02-.73-4.2-1.12-6.47-1.12C12.45,0,6.54,3.46,3.12,8.69,1.15,11.7,0,15.3,0,19.17c0,1.41,.16,2.79,.45,4.11,1.88,8.61,9.55,15.06,18.72,15.06,4.53,0,8.69-1.58,11.97-4.2l-8.94-3.16-.15-.05c-2.78-1.04-4.76-3.72-4.76-6.86,0-4.04,3.28-7.32,7.32-7.32,.84,0,1.66,.14,2.41,.41l.15,.05,.07,.03,10.99,3.89h0s.04,.01,.06,.02l.15,.05c.76,.26,1.57,.41,2.41,.41,4.04,0,7.32-3.28,7.32-7.32,0-3.14-1.98-5.82-4.77-6.86Z"/></g></g></svg>

